<?xml version="1.0" encoding="UTF-8" standalone="no"?>
<!DOCTYPE svg PUBLIC "-//W3C//DTD SVG 1.1//EN" "http://www.w3.org/Graphics/SVG/1.1/DTD/svg11.dtd">
<svg version="1.1" xmlns="http://www.w3.org/2000/svg" xmlns:xlink="http://www.w3.org/1999/xlink" preserveAspectRatio="xMidYMid meet" viewBox="0 0 300 249" width="300" height="249"><defs><path d="M85.02 35.86C85.02 35.86 85.02 35.86 85.02 35.86C111.55 35.86 126.28 35.86 129.23 35.86C178.97 35.86 206.6 35.86 212.13 35.86C217.51 35.86 222.66 38.05 226.46 41.94C230.26 45.83 232.4 51.11 232.4 56.61C232.4 60.07 232.4 77.37 232.4 108.49C232.4 108.49 232.4 108.49 232.4 108.49C232.4 127.17 232.4 137.54 232.4 139.62C232.4 139.62 232.4 139.62 232.4 139.62C232.4 151.08 223.32 160.37 212.13 160.37C206.6 160.37 178.97 160.37 129.23 160.37C125.38 163.89 106.13 181.48 71.47 213.14C79.6 181.48 84.12 163.89 85.02 160.37C79.49 160.37 76.42 160.37 75.8 160.37C64.61 160.37 55.54 151.08 55.54 139.62C55.54 139.62 55.54 139.62 55.54 139.62C55.54 137.54 55.54 127.17 55.54 108.49C55.54 108.49 55.54 108.49 55.54 108.49C55.54 77.36 55.54 60.07 55.54 56.61C55.54 56.61 55.54 56.61 55.54 56.61C55.54 45.15 64.61 35.86 75.8 35.86C76.42 35.86 79.49 35.86 85.02 35.86Z" id="ez4K2UIlU"></path></defs><g><g><g><use xlink:href="#ez4K2UIlU" opacity="1" fill="#000000" fill-opacity="0"></use><g><use xlink:href="#ez4K2UIlU" opacity="1" fill-opacity="0" stroke="#222222" stroke-width="10" stroke-opacity="1"></use></g></g></g></g></svg>